<svg xmlns="http://www.w3.org/2000/svg" xmlns:xlink="http://www.w3.org/1999/xlink" width="1280" zoomAndPan="magnify" viewBox="0 0 960 540.000001" height="720" preserveAspectRatio="xMidYMid meet" version="1.0"><defs><g/><clipPath id="4a2414626e"><path d="M 0.886719 0 L 959.113281 0 L 959.113281 539 L 0.886719 539 Z M 0.886719 0 " clip-rule="nonzero"/></clipPath><clipPath id="615aba8605"><path d="M 0.886719 44.210938 L 959.113281 44.210938 L 959.113281 414.105469 L 0.886719 414.105469 Z M 0.886719 44.210938 " clip-rule="nonzero"/></clipPath><clipPath id="2eeace6bb6"><path d="M 696.921875 10.121094 L 863.816406 10.121094 L 863.816406 177.015625 L 696.921875 177.015625 Z M 696.921875 10.121094 " clip-rule="nonzero"/></clipPath><clipPath id="e0f7c0822c"><path d="M 780.367188 10.121094 C 734.28125 10.121094 696.921875 47.484375 696.921875 93.570312 C 696.921875 139.65625 734.28125 177.015625 780.367188 177.015625 C 826.457031 177.015625 863.816406 139.65625 863.816406 93.570312 C 863.816406 47.484375 826.457031 10.121094 780.367188 10.121094 Z M 780.367188 10.121094 " clip-rule="nonzero"/></clipPath></defs><g clip-path="url(#4a2414626e)"><path fill="#ffffff" d="M 0.886719 0 L 959.113281 0 L 959.113281 539 L 0.886719 539 Z M 0.886719 0 " fill-opacity="1" fill-rule="nonzero"/><path fill="#ffffff" d="M 0.886719 0 L 959.113281 0 L 959.113281 539 L 0.886719 539 Z M 0.886719 0 " fill-opacity="1" fill-rule="nonzero"/></g><g clip-path="url(#615aba8605)"><path fill="#000000" d="M 963.660156 414.101562 L 754.375 310.210938 L 688.503906 352.824219 L 609.292969 291.828125 L 609.292969 309.371094 L 580.949219 263.417969 L 450.472656 304.359375 L 435.285156 316.949219 L 471.160156 261.46875 L 530.082031 73.179688 L 494.511719 147.828125 L 487.839844 87.664062 L 387.78125 249.210938 L 387.78125 160.085938 L 324.414062 229.15625 L 307.902344 309.242188 L 301.621094 309.371094 L 220.742188 360.347656 L 272.4375 275.953125 L 146.792969 365.5625 L 220.742188 262.582031 L 222.410156 208.269531 L -4.382812 404.632812 L 233.25 155.628906 L 333.304688 197.40625 L 396.671875 127.214844 L 401.675781 174.847656 L 487.316406 58.835938 L 498.402344 75.410156 L 522.300781 47.835938 L 522.300781 44.214844 L 719.082031 252.554688 L 752.429688 241.414062 Z M 963.660156 414.101562 " fill-opacity="1" fill-rule="nonzero"/></g><g clip-path="url(#2eeace6bb6)"><g clip-path="url(#e0f7c0822c)"><path fill="#000000" d="M 696.921875 10.121094 L 863.816406 10.121094 L 863.816406 177.015625 L 696.921875 177.015625 Z M 696.921875 10.121094 " fill-opacity="1" fill-rule="nonzero"/></g></g><g fill="#000000" fill-opacity="1"><g transform="translate(299.624051, 461.910549)"><g><path d="M 12.5 0 L 36.164062 0 L 36.164062 -29.023438 L 53.28125 -29.023438 C 78.433594 -29.023438 94.65625 -43.757812 94.65625 -66.527344 C 94.65625 -89.445312 78.433594 -104.179688 53.28125 -104.179688 L 12.5 -104.179688 Z M 36.015625 -49.410156 L 36.015625 -83.492188 L 51.347656 -83.492188 C 63.699219 -83.492188 70.546875 -77.242188 70.546875 -66.378906 C 70.546875 -55.515625 63.699219 -49.410156 51.347656 -49.410156 Z M 36.015625 -49.410156 "/></g></g></g><g fill="#000000" fill-opacity="1"><g transform="translate(390.998156, 461.910549)"><g><path d="M 48.222656 2.082031 C 67.421875 2.082031 82.601562 -7.738281 89.445312 -24.257812 L 66.527344 -24.257812 C 62.804688 -19.050781 56.109375 -16.074219 48.667969 -16.074219 C 38.398438 -16.074219 30.363281 -21.878906 28.277344 -32.59375 L 90.933594 -32.59375 C 92.273438 -61.167969 75.308594 -80.21875 48.519531 -80.21875 C 23.21875 -80.21875 5.804688 -63.402344 5.804688 -39.140625 C 5.804688 -14.734375 23.070312 2.082031 48.222656 2.082031 Z M 28.425781 -46.882812 C 30.957031 -56.40625 38.695312 -62.210938 48.667969 -62.210938 C 59.085938 -62.210938 66.527344 -56.40625 69.058594 -46.882812 Z M 28.425781 -46.882812 "/></g></g></g><g fill="#000000" fill-opacity="1"><g transform="translate(479.991174, 461.910549)"><g><path d="M 37.355469 1.488281 C 48.964844 1.488281 58.492188 -2.234375 65.1875 -9.078125 L 67.71875 0 L 84.535156 0 L 84.535156 -47.03125 C 84.535156 -67.71875 70.546875 -80.21875 47.179688 -80.21875 C 27.234375 -80.21875 14.140625 -70.695312 11.3125 -53.726562 L 33.039062 -53.726562 C 34.378906 -59.234375 40.035156 -62.957031 47.328125 -62.957031 C 56.257812 -62.957031 62.359375 -57.894531 62.359375 -50.15625 L 62.359375 -46.582031 L 34.082031 -46.582031 C 17.859375 -46.582031 7.441406 -37.207031 7.441406 -22.769531 C 7.441406 -7.738281 18.902344 1.488281 37.355469 1.488281 Z M 29.765625 -23.664062 C 29.765625 -29.023438 34.230469 -32.445312 41.078125 -32.445312 L 62.507812 -32.445312 C 62.0625 -21.878906 53.875 -14.734375 42.566406 -14.734375 C 34.828125 -14.734375 29.765625 -18.304688 29.765625 -23.664062 Z M 29.765625 -23.664062 "/></g></g></g><g fill="#000000" fill-opacity="1"><g transform="translate(566.7519, 461.910549)"><g><path d="M 11.3125 0 L 33.933594 0 L 33.933594 -29.765625 L 46.136719 -29.765625 L 63.402344 0 L 89.746094 0 L 67.269531 -37.355469 C 71.4375 -41.078125 74.710938 -46.285156 77.242188 -53.28125 L 86.320312 -78.136719 L 61.914062 -78.136719 L 56.40625 -61.167969 C 53.429688 -52.386719 49.261719 -50.007812 39.738281 -50.007812 L 33.933594 -50.007812 L 33.933594 -110.132812 L 11.3125 -110.132812 Z M 11.3125 0 "/></g></g></g><g fill="#000000" fill-opacity="1"><g transform="translate(225.737148, 525.964706)"><g><path d="M 32.59375 -32.921875 L 20.859375 -32.921875 L 20.859375 0 L 12.890625 0 L 12.890625 -32.921875 L 1.15625 -32.921875 L 1.15625 -39.625 L 32.59375 -39.625 Z M 32.59375 -32.921875 "/></g></g></g><g fill="#000000" fill-opacity="1"><g transform="translate(303.829145, 525.964706)"><g><path d="M 12.015625 -24.015625 L 27.671875 -24.015625 L 27.671875 -39.625 L 35.640625 -39.625 L 35.640625 0 L 27.671875 0 L 27.671875 -17.328125 L 12.015625 -17.328125 L 12.015625 0 L 4.046875 0 L 4.046875 -39.625 L 12.015625 -39.625 Z M 12.015625 -24.015625 "/></g></g></g><g fill="#000000" fill-opacity="1"><g transform="translate(388.064509, 525.964706)"><g><path d="M 30.609375 -38.359375 C 32.265625 -37.648438 33.644531 -36.410156 34.75 -34.640625 C 35.863281 -32.867188 36.421875 -30.820312 36.421875 -28.5 C 36.421875 -25.550781 35.503906 -23.070312 33.671875 -21.0625 C 31.847656 -19.050781 29.273438 -17.84375 25.953125 -17.4375 C 27.390625 -16.4375 28.488281 -15.613281 29.25 -14.96875 C 30.007812 -14.320312 30.835938 -13.414062 31.734375 -12.25 C 32.640625 -11.09375 33.757812 -9.445312 35.09375 -7.3125 L 39.625 0 L 30.046875 0 L 23.625 -9.625 C 22.1875 -11.769531 21.070312 -13.289062 20.28125 -14.1875 C 19.488281 -15.09375 18.648438 -15.710938 17.765625 -16.046875 C 16.878906 -16.378906 15.625 -16.546875 14 -16.546875 L 12.015625 -16.546875 L 12.015625 0 L 4.046875 0 L 4.046875 -39.625 L 21.359375 -39.625 C 23.242188 -39.625 24.953125 -39.539062 26.484375 -39.375 C 28.015625 -39.207031 29.390625 -38.867188 30.609375 -38.359375 Z M 24.953125 -23.296875 C 25.921875 -23.597656 26.695312 -24.148438 27.28125 -24.953125 C 27.875 -25.765625 28.171875 -26.78125 28.171875 -28 C 28.171875 -30.101562 27.265625 -31.5625 25.453125 -32.375 C 24.972656 -32.59375 24.382812 -32.738281 23.6875 -32.8125 C 22.988281 -32.882812 21.789062 -32.921875 20.09375 -32.921875 L 12.015625 -32.921875 L 12.015625 -22.859375 L 19.03125 -22.859375 C 21.914062 -22.859375 23.890625 -23.003906 24.953125 -23.296875 Z M 24.953125 -23.296875 "/></g></g></g><g fill="#000000" fill-opacity="1"><g transform="translate(472.299883, 525.964706)"><g><path d="M 33.421875 -32.921875 L 12.015625 -32.921875 L 12.015625 -24.125 L 31.9375 -24.125 L 31.9375 -17.4375 L 12.015625 -17.4375 L 12.015625 -6.703125 L 34.140625 -6.703125 L 34.140625 0 L 4.046875 0 L 4.046875 -39.625 L 33.421875 -39.625 Z M 33.421875 -32.921875 "/></g></g></g><g fill="#000000" fill-opacity="1"><g transform="translate(553.491245, 525.964706)"><g><path d="M 39.796875 0 L 31.046875 0 L 27.609375 -8.96875 L 11.78125 -8.96875 L 8.515625 0 L 0 0 L 15.4375 -39.625 L 23.90625 -39.625 Z M 14.21875 -15.65625 L 25.078125 -15.65625 L 19.59375 -30.390625 Z M 14.21875 -15.65625 "/></g></g></g><g fill="#000000" fill-opacity="1"><g transform="translate(637.7266, 525.964706)"><g><path d="M 31.375 -35.921875 C 35.25 -32.453125 37.1875 -26.914062 37.1875 -19.3125 C 37.1875 -12.925781 35.472656 -7.925781 32.046875 -4.3125 C 29.347656 -1.4375 25.195312 0 19.59375 0 L 3.984375 0 L 3.984375 -39.625 L 19.421875 -39.625 C 22.222656 -39.625 24.546875 -39.335938 26.390625 -38.765625 C 28.242188 -38.191406 29.90625 -37.242188 31.375 -35.921875 Z M 28.9375 -19.75 C 28.9375 -23.550781 28.484375 -26.398438 27.578125 -28.296875 C 26.679688 -30.203125 25.382812 -31.445312 23.6875 -32.03125 C 21.988281 -32.625 19.664062 -32.921875 16.71875 -32.921875 L 11.953125 -32.921875 L 11.953125 -6.703125 L 18.59375 -6.703125 C 21.0625 -6.703125 23.023438 -7.023438 24.484375 -7.671875 C 25.941406 -8.316406 27.046875 -9.578125 27.796875 -11.453125 C 28.554688 -13.335938 28.9375 -16.101562 28.9375 -19.75 Z M 28.9375 -19.75 "/></g></g></g><g fill="#000000" fill-opacity="1"><g transform="translate(721.961955, 525.964706)"><g><path d="M 17.875 -40.296875 C 22.269531 -40.296875 25.859375 -39.316406 28.640625 -37.359375 C 31.421875 -35.398438 32.890625 -32.375 33.046875 -28.28125 L 25.015625 -27.953125 C 24.753906 -29.796875 24.078125 -31.210938 22.984375 -32.203125 C 21.898438 -33.203125 20.160156 -33.703125 17.765625 -33.703125 C 16.109375 -33.703125 14.578125 -33.40625 13.171875 -32.8125 C 11.765625 -32.226562 11.0625 -31.21875 11.0625 -29.78125 C 11.0625 -28.5625 11.6875 -27.59375 12.9375 -26.875 C 14.195312 -26.15625 16.429688 -25.425781 19.640625 -24.6875 C 22.628906 -23.976562 25.09375 -23.226562 27.03125 -22.4375 C 28.96875 -21.644531 30.632812 -20.375 32.03125 -18.625 C 33.4375 -16.875 34.140625 -14.503906 34.140625 -11.515625 C 34.140625 -10.003906 33.789062 -8.398438 33.09375 -6.703125 C 32.394531 -5.003906 31.253906 -3.546875 29.671875 -2.328125 C 28.484375 -1.367188 26.921875 -0.628906 24.984375 -0.109375 C 23.046875 0.410156 20.804688 0.671875 18.265625 0.671875 C 13.316406 0.671875 9.515625 -0.441406 6.859375 -2.671875 C 4.203125 -4.910156 2.582031 -8.316406 2 -12.890625 L 9.734375 -13.609375 C 10.585938 -8.554688 13.46875 -6.03125 18.375 -6.03125 C 20.957031 -6.03125 22.898438 -6.570312 24.203125 -7.65625 C 25.515625 -8.75 26.171875 -10.035156 26.171875 -11.515625 C 26.171875 -12.578125 25.847656 -13.421875 25.203125 -14.046875 C 24.554688 -14.679688 23.539062 -15.226562 22.15625 -15.6875 C 20.78125 -16.144531 18.613281 -16.726562 15.65625 -17.4375 C 11.96875 -18.25 9.007812 -19.613281 6.78125 -21.53125 C 4.550781 -23.445312 3.4375 -26.007812 3.4375 -29.21875 C 3.4375 -30.957031 3.878906 -32.664062 4.765625 -34.34375 C 5.648438 -36.019531 7.171875 -37.429688 9.328125 -38.578125 C 11.484375 -39.722656 14.332031 -40.296875 17.875 -40.296875 Z M 17.875 -40.296875 "/></g></g></g></svg>